<?xml version="1.0" encoding="utf-8"?>
<!-- Generator: Adobe Illustrator 18.1.1, SVG Export Plug-In . SVG Version: 6.00 Build 0)  -->
<svg version="1.1" xmlns="http://www.w3.org/2000/svg" xmlns:xlink="http://www.w3.org/1999/xlink" x="0px" y="0px"
	 viewBox="0 0 131.3 29.3" enable-background="new 0 0 131.3 29.3" xml:space="preserve">
<g id="BACKGROUND" display="none">
	<g display="inline">
		<g>
			<g>
				<g>
					<rect x="-287" y="-378.3" fill="#FFFFFF" width="500" height="500"/>
				</g>
			</g>
		</g>
	</g>
	<rect x="-30.4" y="-111" display="inline" fill="#001C39" width="190.1" height="176.7"/>
</g>
<g id="DESIGNED_BY_FREEPIK">
	<g>
		<g id="XMLID_319_">
			<g id="XMLID_338_">
				<path id="XMLID_346_" fill="#1D262D" d="M-26.4,87.1c-0.4,0.4-0.8,0.9-1.1,1.5l-0.5-0.2c-0.1-0.3-0.3-0.5-0.7-0.5
					c-0.3,0-0.6,0.3-0.5,0.7c0,0.3,0.3,0.6,0.7,0.5c0.1,0,0.1,0,0.2-0.1l0.5,0.2c-0.3,0.6-0.4,1.1-0.5,1.7l0.7,0.1
					c0.2-1.3,0.8-2.5,1.8-3.5L-26.4,87.1z"/>
				<path id="XMLID_345_" fill="#1D262D" d="M-20.9,84.8c-0.2,0-0.3,0-0.5,0l-0.1-0.6c0.2-0.1,0.3-0.4,0.3-0.6
					c0-0.4-0.4-0.7-0.8-0.6c-0.4,0-0.7,0.4-0.6,0.8c0,0.3,0.2,0.5,0.4,0.6l0.1,0.6c-0.7,0.1-1.4,0.3-2.1,0.6l0.3,0.7
					c0.9-0.4,1.9-0.7,3-0.7c0.5,0,1,0.1,1.5,0.2l0.2-0.7C-19.8,84.9-20.4,84.8-20.9,84.8z"/>
				<path id="XMLID_344_" fill="#1D262D" d="M-14.3,87.4c0.3,0,0.6-0.3,0.5-0.7c0-0.3-0.3-0.6-0.7-0.5c-0.3,0-0.5,0.3-0.5,0.6
					l-0.4,0.4c-0.4-0.4-0.9-0.8-1.4-1.1l-0.4,0.6c1.1,0.7,2,1.7,2.6,2.9l0.7-0.3c-0.3-0.6-0.6-1.1-0.9-1.5l0.4-0.4
					C-14.4,87.4-14.4,87.4-14.3,87.4z"/>
				<path id="XMLID_343_" fill="#1D262D" d="M-21.4,95c-0.4,0-0.8,0-1.2,0c-0.9,0-1.7-0.1-2.5-0.2c-0.4-0.1-0.8-0.2-1.3-0.3
					c1,1.9,3.1,3.1,5.4,3.1c2.9,0,5.3-1.9,5.9-4.5c-0.7,0.4-1.5,0.8-2.5,1.1C-18.7,94.7-20,95-21.4,95z"/>
				<path id="XMLID_339_" fill="#1D262D" d="M-20.9,86.3c-3.4,0-6.1,2.7-6.1,5.9c0,0.4,0,0.8,0.1,1.3c0.7,0.5,2.7,0.9,5.3,0.7
					c2.9-0.2,5.3-1,6.7-2.2c0-0.2,0-0.4,0-0.6C-15.2,88.6-17.8,86.3-20.9,86.3z M-23.1,92.9c-1,0-1.8-0.8-1.8-1.8
					c0-1,0.8-1.8,1.8-1.8c1,0,1.8,0.8,1.8,1.8C-21.2,92-22,92.9-23.1,92.9z M-18.3,92c-0.8,0-1.4-0.6-1.4-1.4s0.6-1.4,1.4-1.4
					c0.8,0,1.4,0.6,1.4,1.4S-17.6,92-18.3,92z"/>
			</g>
			<path id="XMLID_336_" fill="#1D262D" d="M-4.9,88.2c-0.3-0.1-0.8-0.3-1.4-0.2c-0.6,0.1-0.8,0.3-0.8,1v0.9h2.2v1.7h-2.2V97h-1.9
				v-5.5h-1.3v-1.7h1.3V89c0-1.7,0.9-2.8,2.6-2.8c0.6,0,1.2,0.1,1.6,0.3L-4.9,88.2z"/>
			<path id="XMLID_334_" fill="#1D262D" d="M-0.2,91.5c-0.2,0-0.4,0-0.5,0c-0.9,0-1.5,0.5-1.5,1.6V97h-1.9v-7.2h1.9v0.8
				c0.5-0.7,1.1-1,2-1c0.4,0,0.8,0.1,1.1,0.3L-0.2,91.5z"/>
			<path id="XMLID_331_" fill="#1D262D" d="M7.5,93.4c0,0.2,0,0.5,0,0.7H2.4c0.2,1,0.9,1.5,1.8,1.5c0.6,0,1.3-0.3,1.8-0.7l1.1,1.2
				c-0.8,0.7-1.9,1.1-3.1,1.1c-2.2,0-3.7-1.5-3.7-3.8c0-2.3,1.5-3.8,3.6-3.8C6.1,89.7,7.5,91.2,7.5,93.4z M2.4,92.8h3.2
				c-0.2-0.9-0.7-1.4-1.6-1.4C3.1,91.3,2.5,91.9,2.4,92.8z"/>
			<path id="XMLID_328_" fill="#1D262D" d="M15.1,93.4c0,0.2,0,0.5,0,0.7H10c0.2,1,0.9,1.5,1.8,1.5c0.6,0,1.3-0.3,1.8-0.7l1.1,1.2
				c-0.8,0.7-1.9,1.1-3.1,1.1c-2.2,0-3.7-1.5-3.7-3.8c0-2.3,1.5-3.8,3.6-3.8C13.7,89.7,15.1,91.2,15.1,93.4z M10,92.8h3.2
				c-0.2-0.9-0.7-1.4-1.6-1.4C10.7,91.3,10.2,91.9,10,92.8z"/>
			<path id="XMLID_325_" fill="#1D262D" d="M23.5,93.4c0,2.2-1.5,3.8-3.5,3.8c-1,0-1.6-0.4-2.1-0.9v3.7H16V89.8h1.9v0.8
				c0.5-0.6,1.2-1,2.1-1C22,89.7,23.5,91.3,23.5,93.4z M17.8,93.4c0,1.1,0.7,2,1.8,2c1.1,0,1.9-0.9,1.9-2c0-1.1-0.7-2-1.9-2
				C18.5,91.5,17.8,92.3,17.8,93.4z"/>
			<path id="XMLID_322_" fill="#1D262D" d="M26.6,87.5c0,0.7-0.5,1.2-1.2,1.2c-0.7,0-1.2-0.5-1.2-1.2c0-0.7,0.5-1.2,1.2-1.2
				C26,86.3,26.6,86.8,26.6,87.5z M26.3,97h-1.9v-7.2h1.9V97z"/>
			<path id="XMLID_320_" fill="#1D262D" d="M29.5,92.4l2.7-2.6h2.4l-3.5,3.4l3.5,3.8h-2.4l-2.7-2.9V97h-1.9V86.4h1.9V92.4z"/>
		</g>
		<g>
			<path fill="#1D262D" d="M-102.1,97v-1.1c-0.5,0.7-1.4,1.2-2.4,1.2c-1.8,0-3.1-1.4-3.1-3.7c0-2.3,1.3-3.7,3.1-3.7
				c1,0,1.8,0.5,2.4,1.2v-3.8h1.1V97H-102.1z M-102.1,95v-3.2c-0.4-0.6-1.2-1.1-2.1-1.1c-1.4,0-2.3,1.2-2.3,2.7
				c0,1.6,0.8,2.7,2.3,2.7C-103.3,96.1-102.5,95.7-102.1,95z"/>
			<path fill="#1D262D" d="M-99.6,93.4c0-2.1,1.5-3.7,3.5-3.7c2.1,0,3.4,1.7,3.4,3.8v0.3h-5.7c0.1,1.3,1,2.4,2.5,2.4
				c0.8,0,1.6-0.3,2.2-0.9l0.5,0.7c-0.7,0.7-1.7,1.1-2.8,1.1C-98.1,97.1-99.6,95.6-99.6,93.4z M-96.1,90.6c-1.5,0-2.3,1.3-2.3,2.4
				h4.6C-93.8,91.9-94.5,90.6-96.1,90.6z"/>
			<path fill="#1D262D" d="M-91.9,96l0.6-0.8c0.5,0.5,1.4,1,2.3,1c1.1,0,1.7-0.5,1.7-1.2c0-1.7-4.4-0.7-4.4-3.3c0-1.1,1-2,2.6-2
				c1.2,0,2.1,0.5,2.6,1l-0.5,0.8c-0.4-0.5-1.2-0.9-2.1-0.9c-1,0-1.6,0.5-1.6,1.1c0,1.6,4.4,0.5,4.4,3.3c0,1.2-1,2.1-2.8,2.1
				C-90.2,97.1-91.2,96.8-91.9,96z"/>
			<path fill="#1D262D" d="M-85,88.1c0-0.4,0.3-0.7,0.7-0.7c0.4,0,0.7,0.3,0.7,0.7c0,0.4-0.3,0.7-0.7,0.7
				C-84.7,88.9-85,88.5-85,88.1z M-84.8,97v-7.1h1.1V97H-84.8z"/>
			<path fill="#1D262D" d="M-81.9,98.8l0.6-0.8c0.6,0.7,1.3,1,2.3,1c1.2,0,2.3-0.6,2.3-2.1v-1c-0.5,0.7-1.4,1.3-2.4,1.3
				c-1.8,0-3.1-1.4-3.1-3.7c0-2.3,1.3-3.7,3.1-3.7c1,0,1.8,0.5,2.4,1.2v-1.1h1.1v6.9c0,2.3-1.6,3.1-3.4,3.1
				C-80.3,99.8-81.1,99.6-81.9,98.8z M-76.8,94.9v-3.1c-0.4-0.6-1.2-1.1-2.1-1.1c-1.4,0-2.3,1.1-2.3,2.7c0,1.6,0.8,2.7,2.3,2.7
				C-78,96.1-77.2,95.5-76.8,94.9z"/>
			<path fill="#1D262D" d="M-69.1,97v-4.6c0-1.2-0.6-1.6-1.6-1.6c-0.9,0-1.7,0.5-2.1,1.1V97h-1.1v-7.1h1.1v1
				c0.5-0.6,1.5-1.2,2.5-1.2c1.5,0,2.3,0.7,2.3,2.3v5H-69.1z"/>
			<path fill="#1D262D" d="M-66.6,93.4c0-2.1,1.5-3.7,3.5-3.7c2.1,0,3.4,1.7,3.4,3.8v0.3h-5.7c0.1,1.3,1,2.4,2.5,2.4
				c0.8,0,1.6-0.3,2.2-0.9l0.5,0.7c-0.7,0.7-1.7,1.1-2.8,1.1C-65.1,97.1-66.6,95.6-66.6,93.4z M-63.1,90.6c-1.5,0-2.3,1.3-2.3,2.4
				h4.6C-60.8,91.9-61.5,90.6-63.1,90.6z"/>
			<path fill="#1D262D" d="M-53.1,97v-1.1c-0.5,0.7-1.4,1.2-2.4,1.2c-1.8,0-3.1-1.4-3.1-3.7c0-2.3,1.3-3.7,3.1-3.7
				c1,0,1.8,0.5,2.4,1.2v-3.8h1.1V97H-53.1z M-53.1,95v-3.2c-0.4-0.6-1.2-1.1-2.1-1.1c-1.4,0-2.3,1.2-2.3,2.7c0,1.6,0.8,2.7,2.3,2.7
				C-54.4,96.1-53.5,95.7-53.1,95z"/>
			<path fill="#1D262D" d="M-46.8,97v-9.8h1.1V91c0.6-0.8,1.4-1.2,2.4-1.2c1.8,0,3.1,1.5,3.1,3.7c0,2.3-1.3,3.7-3.1,3.7
				c-1,0-1.9-0.5-2.4-1.2V97H-46.8z M-43.6,96.1c1.4,0,2.3-1.2,2.3-2.7c0-1.6-0.8-2.7-2.3-2.7c-0.9,0-1.7,0.5-2.1,1.1V95
				C-45.3,95.7-44.5,96.1-43.6,96.1z"/>
			<path fill="#1D262D" d="M-39,98.7c0.2,0.1,0.4,0.1,0.6,0.1c0.5,0,0.8-0.2,1.1-0.7l0.5-1.1l-3-7.1h1.2l2.4,5.8l2.3-5.8h1.2
				l-3.5,8.5c-0.4,1-1.1,1.4-2.1,1.4c-0.2,0-0.6,0-0.8-0.1L-39,98.7z"/>
		</g>
	</g>
</g>
<g id="OBJECTS">
	<g>
		<g>
			<g>
				<path fill="#DA9500" d="M-147.5-292.9c-5.5,4.2-16.2,15.8-26.4,26.9c-6.8,7.5-16.1,12.5-26.2,13.6c-4.1,0.4-8.6,0.3-13.2-0.9
					c-1.4-0.4-3,0.3-3.6,1.6c-0.1,0.2-0.2,0.3-0.2,0.5c-4.1,9.4,5,15.9,12.8,18.8c9.3,3.4,45,2.6,51.8,0c0.7-0.3,1.3-0.8,1.6-1.5
					l0.8-2.2c0,0,10-1.1,10.8-0.8c0.5,0.2,1,1.5,1.4,2.6c0.3,0.9,1.1,1.6,2.1,1.8c6.2,0.9,28.3,3.3,45.3-5.7
					c0.8-0.4,1.3-1.3,1.3-2.2c0.1-5.5,0.1-25-5.3-37.7c-0.7-1.6-2-3-3.7-3.6c-1.6-0.6-3.5-0.5-4.7,1.9c-4.2,8.4-9.4,19.5-37.6,0.3
					c0,0,2.5-2.1,1.5-6c-0.6-2.3-2.7-5-4.2-6.9C-144.4-293.6-146.2-293.8-147.5-292.9z"/>
				<path fill="#001C39" d="M-101.2-261.5c-5.1,3.1-9.4,7.2-12.9,12c-3.6,4.9-6.7,10.4-8.1,16.4c-0.1,0.5-0.2,1.1-0.3,1.6
					c9.4,0,21.6-1.2,31.9-6.7c0.8-0.4,1.3-1.3,1.3-2.2c0.1-4,0.1-15.1-1.9-25.8C-94.8-265.3-98.3-263.2-101.2-261.5z"/>
				<path fill="#001C39" d="M-144.3-276c8.2,7.8,20,12.1,30.3,12c0.3,0,0.7,0,1,0c7.2-0.6,12-7.8,10.2-14.8l-0.2-0.9
					c-4.2,8.4-9.4,19.5-37.6,0.3L-144.3-276z"/>
				<path fill="#001C39" d="M-215.6-239.7c2.7,3.4,7.1,5.9,11.2,7.4c9.3,3.4,45,2.6,51.8,0c0.7-0.3,1.3-0.8,1.6-1.5l0.8-2.2
					c0,0,10-1.1,10.8-0.8c0.5,0.2,1,1.5,1.4,2.6c0.3,1,1.1,1.6,2.1,1.8c6.2,0.9,28.3,3.3,45.2-5.7c0.8-0.4,1.3-1.3,1.4-2.2
					c0-1.4,0-6.3,0-6.3c-9.2,10-37.9-0.5-60.7,5.9C-177-233.1-205.5-233.9-215.6-239.7z"/>
				<g>
					<path fill="#E8BE77" d="M-214.4-238.3C-214.4-238.3-214.3-238.3-214.4-238.3c0,0-0.1-0.1-0.2-0.2
						C-214.5-238.5-214.5-238.4-214.4-238.3z"/>
					<path fill="#E8BE77" d="M-214.6-238.6c-0.4-0.4-0.7-0.7-1-1.1C-215.3-239.3-214.9-238.9-214.6-238.6z"/>
					<path fill="#E8BE77" d="M-89.6-239.4c0.1-0.2,0.1-0.3,0.2-0.5C-89.5-239.7-89.5-239.5-89.6-239.4L-89.6-239.4z"/>
					<path fill="#E8BE77" d="M-89.3-246.7c0,0,0,4.9,0,6.3C-89.3-241.8-89.3-243.9-89.3-246.7z"/>
				</g>
				<path fill="#FFFFFF" d="M-89.4-248.9c-8.5,9-38.5,0.3-60.5,6.6c-26.9,7.6-55.2,7.1-66.4,1.6c0,0,0,0,0,0c0.2,0.4,0.5,0.7,0.8,1
					c0,0,0,0,0,0c10.1,5.8,38.6,6.6,65.6-1.1c22.7-6.4,51.5,4,60.7-5.9C-89.4-247.4-89.4-248.1-89.4-248.9z"/>
				<path fill="#001C39" d="M-160.8-256.9c2.9-1.7,24.6-19.8,24.6-19.8c-1.4-0.9-2.8-1.8-4.4-2.8l-20.8,17.1
					c-3.8,3.1-8.6,4.9-13.5,4.7c-2.3-0.1-4.6-0.6-6.1-2c-1.5,1.1-3.1,2.1-4.8,2.9C-180.2-251.3-168-251.4-160.8-256.9z"/>
				<g>
					<path fill="#FFFFFF" d="M-172.4-267.6c-0.5,0.5-1,1.1-1.5,1.6c-0.1,0.1-0.2,0.3-0.4,0.4l3.2,3.2c0.5,0.5,1.4,0.5,1.9,0
						c0.5-0.5,0.5-1.4,0-1.9L-172.4-267.6z"/>
					<path fill="#FFFFFF" d="M-167.6-272.8c-0.6,0.7-1.2,1.3-1.9,2l4.1,4.1c0.5,0.5,1.4,0.5,1.9,0c0.5-0.5,0.5-1.4,0-1.9
						L-167.6-272.8z"/>
					<path fill="#FFFFFF" d="M-162.8-278c-0.6,0.7-1.2,1.3-1.9,2l4.6,4.6c0.5,0.5,1.4,0.5,1.9,0c0.5-0.5,0.5-1.4,0-1.9L-162.8-278z"
						/>
					<path fill="#FFFFFF" d="M-152.7-278l-5.2-5.2c-0.6,0.6-1.3,1.3-1.9,2l5.1,5.1c0.5,0.5,1.4,0.5,1.9,0
						C-152.1-276.6-152.1-277.5-152.7-278z"/>
				</g>
			</g>
			<path fill="#DA9500" d="M-78.5-286.2c-0.4-3.5-2.5-6.4-4-9.6c-1-2.1-1.6-4.4-1.1-6.8c0.5-2.5,2.1-4.7,3.8-6.6
				c0.2-0.2-0.1-0.6-0.3-0.4c-3.8,1.8-7.1,4.5-9.6,7.9c1.9-5.8,0.7-12.3-3.3-17.2c-2.2-2.8-5.2-5.2-6.6-8.5c-2-4.7,0.7-9.2,3.4-13
				c0.1-0.2,0-0.6-0.3-0.4c-7.3,3.3-13.1,10-13.1,18.3c0,2,0.3,4,1,5.9c0.7,1.9,1.9,3.5,2.8,5.3c1.2,2.1,1.9,4.3,1.3,6.7
				c-0.5,2-1.6,3.7-3.3,4.9c1.7-5.8-3.6-10.3-7.9-13.3c-0.2-0.2-0.5,0-0.4,0.3c1.2,5-2.6,9.1-5.6,12.5c-2.4,2.8-4.4,5.7-4.8,9.4
				c-0.6,6.2,6,15.4,13.6,16.4c0.3,0,0.3-0.4,0.1-0.5c-6.1-3.5-6.6-12-1.2-16.3c0.3,2.5,0.8,5,2.7,6.7c1.7,1.6,4.1,2.1,6.2,1
				c4.2-2.2,5.5-7.3,5.8-11.8c0.4,1.6,1,3.1,1.9,4.5c1.5,2.5,4,4.2,5.5,6.6c1.7,2.6,1.4,5.9-0.1,8.5c-1.6,2.7-4.5,4.3-7.4,5.2
				c-0.3,0.1-0.2,0.5,0,0.5c6.8,1.5,14.4-0.7,18.3-6.7C-79.1-279.3-78.1-282.8-78.5-286.2z"/>
		</g>
		<g>
			
				<text transform="matrix(1 0 0 1 -234.4198 -203.0743)" fill="#001C39" font-family="'Aleo-Bold'" font-size="17.5037" letter-spacing="1">COMPANY NAME</text>
			
				<text transform="matrix(1 0 0 1 -205.9135 -185.7242)" fill="#001C39" font-family="'Arcon-Regular'" font-size="10.9034" letter-spacing="1">AMAZING SLOGAN</text>
		</g>
	</g>
	<g>
		<g>
			<g>
				<path fill="#DA9500" d="M-160.7-70.3c-5.5,4.2-16.2,15.8-26.4,26.9c-6.8,7.5-16.1,12.5-26.2,13.6c-4.1,0.4-8.6,0.3-13.2-0.9
					c-1.4-0.4-3,0.3-3.6,1.6c-0.1,0.2-0.2,0.3-0.2,0.5c-4.1,9.4,5,15.9,12.8,18.8c9.3,3.4,45,2.6,51.8,0c0.7-0.3,1.3-0.8,1.6-1.5
					l0.8-2.2c0,0,10-1.1,10.8-0.8c0.5,0.2,1,1.5,1.4,2.6c0.3,0.9,1.1,1.6,2.1,1.8c6.2,0.9,28.3,3.3,45.3-5.7
					c0.8-0.4,1.3-1.3,1.3-2.2c0.1-5.5,0.1-25-5.3-37.7c-0.7-1.6-2-3-3.7-3.6c-1.6-0.6-3.5-0.5-4.7,1.9c-4.2,8.4-9.4,19.5-37.6,0.3
					c0,0,2.5-2.1,1.5-6c-0.6-2.3-2.7-5-4.2-6.9C-157.5-71.1-159.4-71.3-160.7-70.3z"/>
				<path fill="#DA9500" d="M-157.4-53.5c8.2,7.8,20,12.1,30.3,12c0.3,0,0.7,0,1,0c7.2-0.6,12-7.8,10.2-14.8l-0.2-0.9
					c-4.2,8.4-9.4,19.5-37.6,0.3L-157.4-53.5z"/>
				<path fill="#DA9500" d="M-114.3-38.9c-5.1,3.1-9.4,7.2-12.9,12c-3.6,4.9-6.7,10.4-8.1,16.4c-0.1,0.5-0.2,1.1-0.3,1.6
					c9.4,0,21.6-1.2,31.9-6.7c0.8-0.4,1.3-1.3,1.3-2.2c0.1-4,0.1-15.1-1.9-25.8C-107.9-42.7-111.4-40.6-114.3-38.9z"/>
				<path fill="#001C39" d="M-228.7-17.1c2.7,3.4,7.1,5.9,11.2,7.4c9.3,3.4,45,2.6,51.8,0c0.7-0.3,1.3-0.8,1.6-1.5l0.8-2.2
					c0,0,10-1.1,10.8-0.8c0.5,0.2,1,1.5,1.4,2.6c0.3,1,1.1,1.6,2.1,1.8c6.2,0.9,28.3,3.3,45.2-5.7c0.8-0.4,1.3-1.3,1.4-2.2
					c0-1.4,0-6.3,0-6.3c-9.2,10-37.9-0.5-60.7,5.9C-190.1-10.5-218.6-11.3-228.7-17.1z"/>
				<g>
					<path fill="#E8BE77" d="M-227.5-15.8C-227.5-15.7-227.5-15.7-227.5-15.8c0,0-0.1-0.1-0.2-0.2
						C-227.6-15.9-227.6-15.8-227.5-15.8z"/>
					<path fill="#E8BE77" d="M-227.7-16c-0.4-0.4-0.7-0.7-1-1.1C-228.4-16.7-228.1-16.3-227.7-16z"/>
					<path fill="#E8BE77" d="M-102.7-16.8c0.1-0.2,0.1-0.3,0.2-0.5C-102.6-17.1-102.6-17-102.7-16.8L-102.7-16.8z"/>
					<path fill="#E8BE77" d="M-102.5-24.1c0,0,0,4.9,0,6.3C-102.4-19.2-102.4-21.4-102.5-24.1z"/>
				</g>
				<path fill="#FFFFFF" d="M-102.5-26.3c-8.5,9-38.5,0.3-60.5,6.6c-26.9,7.6-55.2,7.1-66.4,1.6c0,0,0,0,0,0c0.2,0.4,0.5,0.7,0.8,1
					c0,0,0,0,0,0c10.1,5.8,38.6,6.6,65.6-1.1c22.7-6.4,51.5,4,60.7-5.9C-102.5-24.8-102.5-25.6-102.5-26.3z"/>
				<g>
					<path fill="#FFFFFF" d="M-185.5-45c-0.5,0.5-1,1.1-1.5,1.6c-0.1,0.1-0.2,0.3-0.4,0.4l3.2,3.2c0.5,0.5,1.4,0.5,1.9,0
						c0.5-0.5,0.5-1.4,0-1.9L-185.5-45z"/>
					<path fill="#FFFFFF" d="M-180.7-50.3c-0.6,0.7-1.2,1.3-1.9,2l4.1,4.1c0.5,0.5,1.4,0.5,1.9,0c0.5-0.5,0.5-1.4,0-1.9L-180.7-50.3
						z"/>
					<path fill="#FFFFFF" d="M-175.9-55.5c-0.6,0.7-1.2,1.3-1.9,2l4.6,4.6c0.5,0.5,1.4,0.5,1.9,0c0.5-0.5,0.5-1.4,0-1.9L-175.9-55.5
						z"/>
					<path fill="#FFFFFF" d="M-165.8-55.5l-5.2-5.2c-0.6,0.6-1.3,1.3-1.9,2l5.1,5.1c0.5,0.5,1.4,0.5,1.9,0
						C-165.3-54-165.3-54.9-165.8-55.5z"/>
				</g>
				<path fill="#FFFFFF" d="M-174-34.3c2.9-1.7,24.6-19.8,24.6-19.8c-1.4-0.9-2.8-1.8-4.4-2.8l-20.8,17.1c-3.8,3.1-8.6,4.9-13.5,4.7
					c-2.3-0.1-4.6-0.6-6.1-2c-1.5,1.1-3.1,2.1-4.8,2.9C-193.4-28.7-181.1-28.8-174-34.3z"/>
			</g>
			<path fill="#DA9500" d="M-74.5-85.7c8.5-11.6,9.2-25.4,9.2-25.4c-3.7,8.5-10,15.7-18.1,20.1c-9.2,4.9-19.5,2.9-29.1,6
				c-7.1,2.3-13.7,6.9-17.1,13.7c-2.2,4.4-3,9.5-1.9,14.3c0.7,3.2,2,8.9,6.5,6.3c2.1-1.2,3.6-3.5,4.7-5.5c1-1.7,1.9-3.5,3.4-4.9
				c5.1-4.7,10.6,0.6,12.9,5.5c1.7,3.7,2.9,8.7,3.2,12.7c0,0,15-4,19.9-22.5c-2.7,2.3-8.2,5.4-10.7,6.2c4.4-2.9,8.6-6,12.4-9.6
				c8.9-8.2,8.6-15.1,8.6-15.1c-5.5,5-12.4,10.1-18.9,13.5C-88.2-71.2-80.1-78.1-74.5-85.7z"/>
		</g>
		<g>
			
				<text transform="matrix(1 0 0 1 -234.4198 21.9423)" fill="#001C39" font-family="'Aleo-Bold'" font-size="17.5037" letter-spacing="1">COMPANY NAME</text>
			
				<text transform="matrix(1 0 0 1 -205.9135 39.2919)" fill="#001C39" font-family="'Arcon-Regular'" font-size="10.9034" letter-spacing="1">AMAZING SLOGAN</text>
		</g>
	</g>
	<g>
		<g>
			
				<text transform="matrix(1 0 0 1 -19.6459 -203.0743)" fill="#001C39" font-family="'Aleo-Bold'" font-size="17.5037" letter-spacing="1">COMPANY NAME</text>
			
				<text transform="matrix(1 0 0 1 8.8599 -185.7242)" fill="#001C39" font-family="'Arcon-Regular'" font-size="10.9034" letter-spacing="1">AMAZING SLOGAN</text>
		</g>
		<g>
			<g>
				<g>
					<polygon fill="#001C39" points="0,-234.6 153,-231.7 0,-228.8 					"/>
				</g>
				<g>
					<polygon fill="#001C39" points="9.7,-243.9 153,-241 9.7,-238.2 					"/>
				</g>
				<g>
					<polygon fill="#001C39" points="20.2,-252.8 154,-249.9 20.2,-247 					"/>
				</g>
				<g>
					<polygon fill="#001C39" points="30.2,-261.4 154.9,-258.5 30.2,-255.7 					"/>
				</g>
				<g>
					<polygon fill="#001C39" points="37.9,-271.9 153,-269.1 37.9,-266.2 					"/>
				</g>
			</g>
			<g>
				<path fill="#001C39" d="M28.5-299.8c-4.3,7-16.9,27.9-23.1,43.8c0,0-5.9,9.2-24.6,11.4c-1.5,0.2-2.7,1.4-2.8,2.9
					c0,0.2,0,0.3,0,0.5c-0.2,5.3,3.3,9.9,8.4,11.4c2.9,0.9,6.8,1.5,11.9,1.3c0,0,35.4-2.2,47.3-13c0.6-0.5,0.9-1.2,0.9-2v-2.3
					c0,0,9-4.6,9.8-4.6c0.5,0,1.5,1,2.2,1.9c0.6,0.8,1.7,1.1,2.6,0.9c6.1-1.4,27.5-7.1,40.1-21.6c0.6-0.7,0.8-1.7,0.5-2.6
					c-1.9-5.2-8.9-23.4-18.5-33.2c-1.3-1.3-3-2.1-4.7-2.1c-1.7,0-3.4,0.8-3.7,3.5c0,0-1.8,21.6-35,13.8c0,0,1.6-2.9-0.8-6.2
					c-1.4-1.9-4.3-3.7-6.4-4.9C31.1-301.7,29.3-301.3,28.5-299.8z"/>
				<g>
					<path fill="#FFFFFF" d="M7.5-261l4.7,1.3L8.4-263C8.1-262.4,7.8-261.7,7.5-261z"/>
					<path fill="#FFFFFF" d="M10.4-267.4l6,2l-5-4.2C11.1-268.8,10.8-268.1,10.4-267.4z"/>
					<path fill="#FFFFFF" d="M13.6-273.7l6.8,2.4l-5.6-4.5C14.3-275.2,14-274.4,13.6-273.7z"/>
					<path fill="#FFFFFF" d="M18.1-282.1c-0.4,0.7-0.8,1.4-1.2,2.1l7.3,2.7L18.1-282.1z"/>
				</g>
				<path fill="#FFFFFF" d="M92.6-291.9c-13,5.3-25.2,13.6-36.6,21.7c-21.2,15-51.1,36.4-76,25.7c-0.7,0.3-1.4,0.8-1.7,1.5
					c25.2,8.6,58.8-4.9,78.9-18.8c13.5-9.4,25.7-17.6,39.6-22C95.6-286.4,94.2-289.1,92.6-291.9z"/>
			</g>
		</g>
	</g>
	<g>
		<path fill="#FF7028" d="M14.9,15.2c0.5,0.6,0.7,1.4,0.7,2.3c0,1.3-0.5,2.3-1.6,3c-1.1,0.7-2.6,1.1-4.6,1.1H1.4V6.7h7.6
			c1.9,0,3.4,0.4,4.4,1.1c1,0.7,1.5,1.7,1.5,2.8c0,0.7-0.2,1.3-0.5,1.9c-0.3,0.6-0.8,1-1.5,1.3C13.7,14.1,14.4,14.6,14.9,15.2z
			 M5.6,9.7v2.9h2.9c1.4,0,2.1-0.5,2.1-1.5c0-1-0.7-1.4-2.1-1.4H5.6z M11.4,17c0-1-0.7-1.5-2.2-1.5H5.6v3h3.5
			C10.6,18.6,11.4,18.1,11.4,17z"/>
		<path fill="#FF7028" d="M24.3,17.6H22v4h-4.2V6.7h6.8c1.4,0,2.5,0.2,3.5,0.7c1,0.4,1.8,1.1,2.3,1.9s0.8,1.8,0.8,2.9
			c0,1.1-0.3,2-0.8,2.8c-0.5,0.8-1.2,1.4-2.2,1.9l3.2,4.7H27L24.3,17.6z M26.3,10.6c-0.4-0.4-1.1-0.6-2-0.6H22v4.4h2.3
			c0.9,0,1.5-0.2,2-0.6c0.4-0.4,0.7-0.9,0.7-1.6S26.8,11,26.3,10.6z"/>
		<path fill="#FF7028" d="M36.9,20.9c-1.3-0.7-2.2-1.6-3-2.8c-0.7-1.2-1.1-2.5-1.1-4s0.4-2.8,1.1-4c0.7-1.2,1.7-2.1,3-2.8
			c1.3-0.7,2.7-1,4.3-1s3,0.3,4.3,1c1.3,0.7,2.2,1.6,3,2.8c0.7,1.2,1.1,2.5,1.1,4s-0.4,2.8-1.1,4c-0.7,1.2-1.7,2.1-3,2.8
			c-1.3,0.7-2.7,1-4.3,1S38.1,21.6,36.9,20.9z M43.2,17.9c0.6-0.4,1.1-0.9,1.5-1.5c0.4-0.6,0.5-1.4,0.5-2.2s-0.2-1.6-0.5-2.2
			c-0.4-0.6-0.8-1.1-1.5-1.5c-0.6-0.4-1.3-0.5-2-0.5s-1.4,0.2-2,0.5c-0.6,0.4-1.1,0.9-1.5,1.5c-0.4,0.6-0.5,1.4-0.5,2.2
			s0.2,1.6,0.5,2.2c0.4,0.6,0.8,1.1,1.5,1.5c0.6,0.4,1.3,0.5,2,0.5S42.6,18.2,43.2,17.9z"/>
		<path fill="#FF7028" d="M51.6,15.4V15h4.6v0.4H51.6z"/>
		<path fill="#FFFFFF" d="M72.1,14.3v5.5c-0.8,0.6-1.7,1.1-2.7,1.4c-1,0.4-2.1,0.5-3.1,0.5c-1.5,0-2.8-0.3-4-1s-2.1-1.6-2.8-2.7
			s-1-2.4-1-3.8c0-1.4,0.4-2.7,1.1-3.8c0.7-1.1,1.7-2,2.9-2.7c1.2-0.7,2.6-1,4.1-1c1.1,0,2.1,0.2,3.1,0.6c1,0.4,1.9,0.9,2.6,1.5
			l-1.4,1.9c-0.6-0.5-1.3-1-2-1.3C68,9,67.3,8.9,66.5,8.9c-1,0-1.9,0.2-2.7,0.7c-0.8,0.5-1.5,1.1-2,1.9c-0.5,0.8-0.7,1.7-0.7,2.7
			c0,1,0.2,1.9,0.7,2.7c0.5,0.8,1.1,1.5,2,1.9c0.8,0.5,1.8,0.7,2.8,0.7c0.6,0,1.1-0.1,1.7-0.3c0.6-0.2,1.2-0.4,1.7-0.8v-4.2H72.1z"
			/>
		<path fill="#FFFFFF" d="M87.6,18.8c-0.5,0.9-1.3,1.7-2.2,2.2c-1,0.5-2.1,0.8-3.5,0.8c-1.3,0-2.5-0.3-3.5-0.8
			c-1-0.5-1.7-1.2-2.2-2.2s-0.8-2.1-0.8-3.4V6.7h2.5v8.7c0,1.2,0.4,2.2,1.1,3c0.7,0.7,1.7,1.1,2.9,1.1c1.2,0,2.2-0.4,2.9-1.1
			c0.7-0.7,1.1-1.7,1.1-3V6.7h2.5v8.7C88.4,16.7,88.1,17.8,87.6,18.8z"/>
		<path fill="#FFFFFF" d="M94.5,8.9v4h7.3v2.3h-7.3v4.1h8.4v2.3H92V6.7h10.7v2.3H94.5z"/>
		<path fill="#FFFFFF" d="M113.7,7c0.9,0.3,1.7,0.7,2.4,1.1l-1,2.2c-0.8-0.5-1.5-0.8-2.3-1.1c-0.8-0.2-1.5-0.3-2.1-0.3
			c-0.8,0-1.4,0.1-1.8,0.4c-0.4,0.3-0.6,0.7-0.6,1.2c0,0.4,0.1,0.8,0.4,1.1c0.3,0.3,0.6,0.5,1.1,0.7s1,0.4,1.8,0.6
			c1,0.3,1.8,0.6,2.5,0.9c0.6,0.3,1.2,0.7,1.6,1.3c0.4,0.6,0.7,1.3,0.7,2.2c0,0.9-0.2,1.6-0.7,2.3c-0.5,0.7-1.1,1.2-2,1.5
			c-0.8,0.4-1.8,0.5-2.9,0.5c-1.1,0-2.2-0.2-3.3-0.6c-1.1-0.4-2-1-2.8-1.7l1.1-2.2c0.8,0.7,1.6,1.2,2.5,1.6c0.9,0.4,1.8,0.6,2.6,0.6
			c0.9,0,1.6-0.2,2.1-0.5s0.7-0.8,0.7-1.3c0-0.5-0.1-0.8-0.4-1.1c-0.3-0.3-0.7-0.5-1.1-0.7c-0.4-0.2-1-0.4-1.8-0.6
			c-1-0.3-1.8-0.6-2.5-0.9c-0.6-0.3-1.2-0.7-1.6-1.3c-0.4-0.6-0.7-1.3-0.7-2.2c0-0.8,0.2-1.6,0.7-2.2c0.5-0.6,1.1-1.1,1.9-1.5
			c0.8-0.3,1.8-0.5,2.8-0.5C111.8,6.6,112.7,6.7,113.7,7z"/>
		<path fill="#FFFFFF" d="M126.9,7c0.9,0.3,1.7,0.7,2.4,1.1l-1,2.2c-0.8-0.5-1.5-0.8-2.3-1.1c-0.8-0.2-1.5-0.3-2.1-0.3
			c-0.8,0-1.4,0.1-1.8,0.4c-0.4,0.3-0.6,0.7-0.6,1.2c0,0.4,0.1,0.8,0.4,1.1c0.3,0.3,0.6,0.5,1.1,0.7s1,0.4,1.8,0.6
			c1,0.3,1.8,0.6,2.5,0.9c0.6,0.3,1.2,0.7,1.6,1.3c0.4,0.6,0.7,1.3,0.7,2.2c0,0.9-0.2,1.6-0.7,2.3c-0.5,0.7-1.1,1.2-2,1.5
			c-0.8,0.4-1.8,0.5-2.9,0.5c-1.1,0-2.2-0.2-3.3-0.6c-1.1-0.4-2-1-2.8-1.7l1.1-2.2c0.8,0.7,1.6,1.2,2.5,1.6c0.9,0.4,1.8,0.6,2.6,0.6
			c0.9,0,1.6-0.2,2.1-0.5s0.7-0.8,0.7-1.3c0-0.5-0.1-0.8-0.4-1.1c-0.3-0.3-0.7-0.5-1.1-0.7c-0.4-0.2-1-0.4-1.8-0.6
			c-1-0.3-1.8-0.6-2.5-0.9c-0.6-0.3-1.2-0.7-1.6-1.3c-0.4-0.6-0.7-1.3-0.7-2.2c0-0.8,0.2-1.6,0.7-2.2c0.5-0.6,1.1-1.1,1.9-1.5
			c0.8-0.3,1.8-0.5,2.8-0.5C125.1,6.6,126,6.7,126.9,7z"/>
	</g>
</g>
</svg>
